<svg width="24" height="24" fill="none" xmlns="http://www.w3.org/2000/svg"><path d="M16.24 4H7.76c-2.016 0-3.024 0-3.794.381a3.597 3.597 0 0 0-.912.644c-.265.258-.489.557-.662.886C2 6.66 2 7.64 2 9.6v4.8c0 1.96 0 2.94.392 3.689a3.552 3.552 0 0 0 1.574 1.53C4.736 20 5.744 20 7.76 20h8.48c2.016 0 3.024 0 3.794-.381a3.552 3.552 0 0 0 1.574-1.53C22 17.34 22 16.36 22 14.4V9.6c0-1.96 0-2.94-.392-3.689a3.504 3.504 0 0 0-.662-.886 3.597 3.597 0 0 0-.912-.644C19.264 4 18.256 4 16.24 4Z" stroke="#fff" stroke-width="1.5" stroke-linecap="round" stroke-linejoin="round"/><path d="m6 8 4.717 3.566a2.115 2.115 0 0 0 2.566 0L18 8" stroke="#fff" stroke-width="1.5" stroke-linecap="round" stroke-linejoin="round"/></svg>