<svg width="32" height="32" fill="none" xmlns="http://www.w3.org/2000/svg"><path fill-rule="evenodd" clip-rule="evenodd" d="M32 16c0 8.836-7.164 16-16 16S0 24.836 0 16 7.164 0 16 0c8.838 0 16 7.164 16 16Zm-24.106.538.069-.109 4.162-6.511a.142.142 0 0 1 .25.018c.695 1.558 1.295 3.496 1.014 4.703-.12.496-.449 1.169-.819 1.79-.047.09-.1.18-.156.265a.142.142 0 0 1-.118.062h-4.28a.142.142 0 0 1-.122-.218Zm18.552 2.24v-1.03a.144.144 0 0 0-.182-.139l-4.868 1.408a.136.136 0 0 0-.067.04c-.521.577-.964.963-1.082 1.065l-.008.007a1.648 1.648 0 0 1-1.072.397h-1.762v-1.797h1.4c.037 0 .071-.013.098-.036l.18-.166a8.437 8.437 0 0 0 .489-.482c.072-.07.143-.15.208-.227.11-.118.216-.242.326-.371a3.13 3.13 0 0 0 .222-.28c.079-.092.156-.195.228-.294.027-.04.056-.08.085-.12l.085-.12c.052-.079.105-.163.15-.242.137-.213.254-.442.353-.67.045-.098.081-.201.116-.302l.014-.037a2.654 2.654 0 0 0 .143-1.164 1.501 1.501 0 0 0-.033-.248v-.013a.982.982 0 0 0-.038-.176 4.179 4.179 0 0 0-.268-.794 4.575 4.575 0 0 0-.13-.286 7.392 7.392 0 0 0-.483-.794 6.008 6.008 0 0 0-.313-.43 5.893 5.893 0 0 0-.162-.202l-.092-.111a12.03 12.03 0 0 0-.255-.3 13.563 13.563 0 0 0-.913-.923 3.108 3.108 0 0 0-.169-.156 13.404 13.404 0 0 0-.593-.515c-.051-.039-.097-.078-.14-.113l-.082-.07a16.13 16.13 0 0 1-.133-.1l-.063-.047a.152.152 0 0 0-.043-.022l-.187-.052V7.314a.92.92 0 0 0-.265-.646.893.893 0 0 0-.64-.268c-.499 0-.903.41-.903.914v1.045l-.094-.026-.255-.072-.231-.064-.007-.002h-.005l-1.759-.477a.092.092 0 0 0-.104.134l.282.519c.016.04.036.08.057.12l.04.082c.046.092.092.19.136.286.04.086.079.17.125.262l.06.131c.072.163.15.335.226.52.066.156.132.312.19.475.157.409.307.846.436 1.295.033.1.058.198.085.296.01.042.022.084.034.126l.018.08c.052.208.098.415.131.624.027.143.051.28.064.418.02.156.04.312.046.468.014.143.02.293.02.436 0 .365-.033.716-.11 1.048l-.015.055c-.021.08-.044.164-.07.245a3.69 3.69 0 0 1-.089.262 10.32 10.32 0 0 0-.035.096l-.006.018a10.353 10.353 0 0 1-.653 1.342c-.306.54-.613 1.015-.828 1.321l-.039.057-.044.065a.147.147 0 0 0 .119.23h2.275v1.797h-2.302c-.618 0-1.19-.35-1.466-.911a1.587 1.587 0 0 1-.166-.893c.008-.09-.06-.176-.151-.176H6.863a.143.143 0 0 0-.143.143v.096c0 2.965 2.395 5.369 5.35 5.369h8.34c1.563 0 2.45-1.425 3.323-2.825.243-.39.485-.779.74-1.134.46-.638 1.562-1.144 1.884-1.282a.148.148 0 0 0 .09-.135Z" fill="#fff"/></svg>