<svg width="32" height="32" fill="none" xmlns="http://www.w3.org/2000/svg"><path fill-rule="evenodd" clip-rule="evenodd" d="M16 32c8.837 0 16-7.163 16-16S24.837 0 16 0 0 7.163 0 16s7.163 16 16 16Zm-9.606-9.719V9.4h5.955a3.463 3.463 0 0 1 3.463 3.464c0 1.215-.373 1.968-1.744 2.74 1.64.748 2.095 1.783 2.095 3.228 0 1.954-1.735 3.45-3.69 3.45h-6.08Zm2.52-10.75v3.098h2.95s1.433 0 1.433-1.548c0-1.55-1.434-1.55-1.434-1.55h-2.95Zm0 8.569v-3.345h3.163c.511 0 1.582.264 1.582 1.845 0 1.173-1.054 1.489-1.582 1.5H8.914Zm12.637-7.151c-1.812 0-4.498 1.302-4.498 4.761 0 2.107 1.154 4.812 4.614 4.812 2.768 0 4.042-2.032 4.333-3.048h-2.603c-.132.46-.643.972-1.73.972-1.582 0-2.142-1.351-2.225-2.027H26v-.709c0-3.46-2.636-4.761-4.449-4.761Zm0 1.977c-1.476 0-2.02 1.22-2.109 1.829h3.955c0-.61-.37-1.829-1.846-1.829Zm-3.147-3.196V10.13h6.212v1.599h-6.212Z" fill="#fff"/></svg>