<svg width="236" height="43" viewBox="0 0 236 43" fill="none" xmlns="http://www.w3.org/2000/svg">
<path d="M86.56 17V4.2H93.072C94.2667 4.2 95.2587 4.30133 96.048 4.504C96.848 4.70667 97.4773 4.99467 97.936 5.368C98.4053 5.74133 98.736 6.19467 98.928 6.728C99.12 7.25067 99.216 7.83733 99.216 8.488C99.216 9.13867 99.12 9.72533 98.928 10.248C98.736 10.7707 98.4053 11.2187 97.936 11.592C97.4773 11.9653 96.848 12.2533 96.048 12.456C95.2587 12.6587 94.2667 12.76 93.072 12.76H89.232V17H86.56ZM93.072 10.76C93.744 10.76 94.304 10.712 94.752 10.616C95.2 10.5093 95.552 10.36 95.808 10.168C96.0747 9.976 96.2613 9.74133 96.368 9.464C96.4853 9.176 96.544 8.85067 96.544 8.488C96.544 8.136 96.4907 7.82133 96.384 7.544C96.2773 7.256 96.0907 7.016 95.824 6.824C95.5573 6.62133 95.2 6.46667 94.752 6.36C94.304 6.25333 93.744 6.2 93.072 6.2H89.232V10.76H93.072ZM105.845 7.064C106.751 7.064 107.567 7.16533 108.293 7.368C109.018 7.57067 109.631 7.88 110.133 8.296C110.634 8.70133 111.018 9.208 111.285 9.816C111.551 10.4133 111.685 11.112 111.685 11.912V12.984H102.645C102.666 13.752 102.943 14.3333 103.477 14.728C104.021 15.1227 104.81 15.32 105.845 15.32C106.805 15.32 107.546 15.192 108.069 14.936C108.591 14.68 108.879 14.392 108.933 14.072H111.605C111.359 15.1173 110.725 15.9227 109.701 16.488C108.687 17.0427 107.402 17.32 105.845 17.32C104.938 17.32 104.122 17.2133 103.397 17C102.671 16.7867 102.053 16.4667 101.541 16.04C101.039 15.6027 100.65 15.0693 100.373 14.44C100.106 13.8 99.9726 13.0533 99.9726 12.2C99.9726 11.3573 100.106 10.616 100.373 9.976C100.65 9.32533 101.039 8.78667 101.541 8.36C102.053 7.93333 102.671 7.61333 103.397 7.4C104.122 7.176 104.938 7.064 105.845 7.064ZM105.845 9.064C104.746 9.064 103.941 9.26133 103.429 9.656C102.927 10.04 102.666 10.568 102.645 11.24V11.368H109.013V11.048C109.013 10.4293 108.741 9.944 108.197 9.592C107.663 9.24 106.879 9.064 105.845 9.064ZM113.491 17V4.04H116.163V17H113.491ZM128.548 17H126.548L126.324 15.672C125.972 16.184 125.46 16.5893 124.788 16.888C124.126 17.176 123.305 17.32 122.324 17.32C121.545 17.32 120.868 17.2453 120.292 17.096C119.726 16.9573 119.252 16.76 118.868 16.504C118.494 16.2373 118.217 15.928 118.036 15.576C117.854 15.2133 117.764 14.824 117.764 14.408C117.764 13.864 117.881 13.416 118.116 13.064C118.361 12.712 118.681 12.4293 119.076 12.216C119.47 11.992 119.918 11.8267 120.42 11.72C120.932 11.6027 121.449 11.5227 121.972 11.48C122.494 11.4267 123.006 11.3893 123.508 11.368C124.02 11.3467 124.473 11.32 124.868 11.288C125.262 11.2453 125.577 11.1867 125.812 11.112C126.057 11.0267 126.18 10.8933 126.18 10.712C126.18 10.168 125.924 9.75733 125.412 9.48C124.91 9.20267 124.174 9.064 123.204 9.064C122.649 9.064 122.18 9.10667 121.796 9.192C121.422 9.27733 121.118 9.39467 120.884 9.544C120.649 9.68267 120.484 9.85333 120.388 10.056C120.292 10.248 120.249 10.4613 120.26 10.696L117.924 10.456C117.87 9.96533 117.929 9.512 118.1 9.096C118.27 8.68 118.564 8.32267 118.98 8.024C119.396 7.71467 119.945 7.48 120.628 7.32C121.321 7.14933 122.164 7.064 123.156 7.064C124.19 7.064 125.054 7.15467 125.748 7.336C126.441 7.50667 126.996 7.752 127.412 8.072C127.828 8.392 128.121 8.776 128.292 9.224C128.462 9.672 128.548 10.168 128.548 10.712V17ZM122.756 15.32C123.854 15.32 124.692 15.1387 125.268 14.776C125.844 14.4027 126.148 13.9493 126.18 13.416V12.184C125.902 12.4187 125.561 12.5893 125.156 12.696C124.75 12.8027 124.324 12.888 123.876 12.952C123.428 13.0053 122.98 13.048 122.532 13.08C122.094 13.1013 121.694 13.1493 121.332 13.224C120.98 13.2987 120.692 13.4107 120.468 13.56C120.254 13.6987 120.148 13.912 120.148 14.2C120.148 14.3493 120.185 14.4933 120.26 14.632C120.345 14.7707 120.484 14.8933 120.676 15C120.878 15.096 121.145 15.176 121.476 15.24C121.817 15.2933 122.244 15.32 122.756 15.32ZM135.437 17V6.2H129.421V4.2H144.013V6.2H138.109V17H135.437ZM147.968 7.064C148.875 7.064 149.691 7.16533 150.416 7.368C151.142 7.57067 151.755 7.88 152.256 8.296C152.758 8.70133 153.142 9.208 153.408 9.816C153.675 10.4133 153.808 11.112 153.808 11.912V12.984H144.768C144.79 13.752 145.067 14.3333 145.6 14.728C146.144 15.1227 146.934 15.32 147.968 15.32C148.928 15.32 149.67 15.192 150.192 14.936C150.715 14.68 151.003 14.392 151.056 14.072H153.728C153.483 15.1173 152.848 15.9227 151.824 16.488C150.811 17.0427 149.526 17.32 147.968 17.32C147.062 17.32 146.246 17.2133 145.52 17C144.795 16.7867 144.176 16.4667 143.664 16.04C143.163 15.6027 142.774 15.0693 142.496 14.44C142.23 13.8 142.096 13.0533 142.096 12.2C142.096 11.3573 142.23 10.616 142.496 9.976C142.774 9.32533 143.163 8.78667 143.664 8.36C144.176 7.93333 144.795 7.61333 145.52 7.4C146.246 7.176 147.062 7.064 147.968 7.064ZM147.968 9.064C146.87 9.064 146.064 9.26133 145.552 9.656C145.051 10.04 144.79 10.568 144.768 11.24V11.368H151.136V11.048C151.136 10.4293 150.864 9.944 150.32 9.592C149.787 9.24 149.003 9.064 147.968 9.064ZM165.711 17H163.711L163.487 15.672C163.135 16.184 162.623 16.5893 161.951 16.888C161.289 17.176 160.468 17.32 159.487 17.32C158.708 17.32 158.031 17.2453 157.455 17.096C156.889 16.9573 156.415 16.76 156.031 16.504C155.657 16.2373 155.38 15.928 155.199 15.576C155.017 15.2133 154.927 14.824 154.927 14.408C154.927 13.864 155.044 13.416 155.279 13.064C155.524 12.712 155.844 12.4293 156.239 12.216C156.633 11.992 157.081 11.8267 157.583 11.72C158.095 11.6027 158.612 11.5227 159.135 11.48C159.657 11.4267 160.169 11.3893 160.671 11.368C161.183 11.3467 161.636 11.32 162.031 11.288C162.425 11.2453 162.74 11.1867 162.975 11.112C163.22 11.0267 163.343 10.8933 163.343 10.712C163.343 10.168 163.087 9.75733 162.575 9.48C162.073 9.20267 161.337 9.064 160.367 9.064C159.812 9.064 159.343 9.10667 158.959 9.192C158.585 9.27733 158.281 9.39467 158.047 9.544C157.812 9.68267 157.647 9.85333 157.551 10.056C157.455 10.248 157.412 10.4613 157.423 10.696L155.087 10.456C155.033 9.96533 155.092 9.512 155.263 9.096C155.433 8.68 155.727 8.32267 156.143 8.024C156.559 7.71467 157.108 7.48 157.791 7.32C158.484 7.14933 159.327 7.064 160.319 7.064C161.353 7.064 162.217 7.15467 162.911 7.336C163.604 7.50667 164.159 7.752 164.575 8.072C164.991 8.392 165.284 8.776 165.455 9.224C165.625 9.672 165.711 10.168 165.711 10.712V17ZM159.919 15.32C161.017 15.32 161.855 15.1387 162.431 14.776C163.007 14.4027 163.311 13.9493 163.343 13.416V12.184C163.065 12.4187 162.724 12.5893 162.319 12.696C161.913 12.8027 161.487 12.888 161.039 12.952C160.591 13.0053 160.143 13.048 159.695 13.08C159.257 13.1013 158.857 13.1493 158.495 13.224C158.143 13.2987 157.855 13.4107 157.631 13.56C157.417 13.6987 157.311 13.912 157.311 14.2C157.311 14.3493 157.348 14.4933 157.423 14.632C157.508 14.7707 157.647 14.8933 157.839 15C158.041 15.096 158.308 15.176 158.639 15.24C158.98 15.2933 159.407 15.32 159.919 15.32ZM180.248 17V10.728C180.248 10.216 180.098 9.81067 179.8 9.512C179.501 9.21333 179.016 9.064 178.344 9.064C177.714 9.064 177.224 9.21333 176.872 9.512C176.53 9.81067 176.36 10.216 176.36 10.728V17H173.688V10.728C173.688 10.216 173.528 9.81067 173.208 9.512C172.898 9.21333 172.424 9.064 171.784 9.064C171.176 9.064 170.701 9.21333 170.36 9.512C170.018 9.81067 169.837 10.2427 169.816 10.808V17H167.144V7.384H168.92L169.32 8.6C169.672 8.088 170.125 7.70933 170.68 7.464C171.234 7.208 171.816 7.08 172.424 7.08C173.181 7.08 173.842 7.224 174.408 7.512C174.973 7.8 175.4 8.23733 175.688 8.824C175.858 8.52533 176.066 8.264 176.312 8.04C176.557 7.816 176.829 7.63467 177.128 7.496C177.426 7.34667 177.736 7.24 178.056 7.176C178.386 7.10133 178.722 7.064 179.064 7.064C179.618 7.064 180.13 7.13867 180.6 7.288C181.08 7.42667 181.49 7.64533 181.832 7.944C182.173 8.24267 182.44 8.62133 182.632 9.08C182.824 9.53867 182.92 10.088 182.92 10.728V17H180.248Z" fill="white"/>
<path opacity="0.32" d="M89.92 39H91.432L95.184 28.57H93.714L90.676 37.32L87.624 28.57H86.154L89.92 39ZM95.9259 30.25H97.2279V28.57H95.9259V30.25ZM95.9259 39H97.2279V31.454H95.9259V39ZM101.53 39.168C102.071 39.168 102.547 39.0747 102.958 38.888C103.369 38.7013 103.691 38.4447 103.924 38.118C104.157 37.782 104.274 37.3993 104.274 36.97C104.274 36.4473 104.101 35.9993 103.756 35.626C103.411 35.2527 102.935 34.9773 102.328 34.8L101.096 34.436C100.947 34.3893 100.793 34.3333 100.634 34.268C100.475 34.1933 100.34 34.0907 100.228 33.96C100.116 33.82 100.06 33.6427 100.06 33.428C100.06 33.1293 100.172 32.8867 100.396 32.7C100.629 32.5133 100.933 32.42 101.306 32.42C101.717 32.42 102.09 32.5367 102.426 32.77C102.771 32.994 103.028 33.302 103.196 33.694L104.26 33.204C104.036 32.5973 103.658 32.126 103.126 31.79C102.603 31.454 102.011 31.286 101.348 31.286C100.853 31.286 100.405 31.3793 100.004 31.566C99.6122 31.7527 99.2995 32.014 99.0662 32.35C98.8422 32.6767 98.7302 33.064 98.7302 33.512C98.7302 33.9973 98.8842 34.4267 99.1922 34.8C99.5095 35.164 100.009 35.4393 100.69 35.626L101.824 35.948C101.983 35.9853 102.146 36.046 102.314 36.13C102.491 36.2047 102.641 36.312 102.762 36.452C102.893 36.5827 102.958 36.76 102.958 36.984C102.958 37.3013 102.823 37.558 102.552 37.754C102.281 37.95 101.941 38.048 101.53 38.048C101.073 38.048 100.657 37.922 100.284 37.67C99.9108 37.4087 99.6168 37.0493 99.4022 36.592L98.3662 37.096C98.5995 37.7307 98.9962 38.2347 99.5562 38.608C100.116 38.9813 100.774 39.168 101.53 39.168ZM108.233 39.168C108.699 39.168 109.119 39.0747 109.493 38.888C109.866 38.692 110.165 38.4213 110.389 38.076V39H111.663V31.454H110.347V35.92C110.347 36.536 110.174 37.0213 109.829 37.376C109.493 37.7307 109.059 37.908 108.527 37.908C107.985 37.908 107.547 37.74 107.211 37.404C106.875 37.0587 106.707 36.6013 106.707 36.032V31.454H105.405V36.172C105.405 36.76 105.526 37.2827 105.769 37.74C106.011 38.188 106.343 38.538 106.763 38.79C107.192 39.042 107.682 39.168 108.233 39.168ZM115.472 39.168C116.022 39.168 116.517 39.0653 116.956 38.86C117.394 38.6453 117.749 38.3653 118.02 38.02V39H119.294V33.876C119.294 33.3627 119.168 32.9147 118.916 32.532C118.673 32.14 118.332 31.8367 117.894 31.622C117.455 31.398 116.946 31.286 116.368 31.286C115.92 31.286 115.49 31.3653 115.08 31.524C114.669 31.6827 114.31 31.902 114.002 32.182C113.694 32.4527 113.47 32.7607 113.33 33.106L114.464 33.694C114.622 33.3393 114.865 33.05 115.192 32.826C115.518 32.602 115.901 32.49 116.34 32.49C116.834 32.49 117.231 32.6207 117.53 32.882C117.838 33.134 117.992 33.4653 117.992 33.876V34.226L115.416 34.646C114.566 34.786 113.941 35.0707 113.54 35.5C113.148 35.92 112.952 36.4287 112.952 37.026C112.952 37.6607 113.185 38.1787 113.652 38.58C114.128 38.972 114.734 39.168 115.472 39.168ZM114.324 36.984C114.324 36.6573 114.431 36.382 114.646 36.158C114.87 35.934 115.224 35.78 115.71 35.696L117.992 35.318V35.794C117.992 36.214 117.894 36.5967 117.698 36.942C117.502 37.2873 117.226 37.5627 116.872 37.768C116.517 37.964 116.102 38.062 115.626 38.062C115.252 38.062 114.94 37.9593 114.688 37.754C114.445 37.5487 114.324 37.292 114.324 36.984ZM120.892 39H122.194V28.402H120.892V39ZM128.693 39.168C129.421 39.168 130.023 39.014 130.499 38.706C130.984 38.398 131.385 38.0527 131.703 37.67L132.963 39H134.685L132.445 36.606L134.251 33.848H132.753L131.549 35.64L129.715 33.666C129.995 33.4887 130.284 33.274 130.583 33.022C130.891 32.77 131.152 32.4713 131.367 32.126C131.581 31.7713 131.689 31.356 131.689 30.88C131.689 30.3947 131.572 29.97 131.339 29.606C131.105 29.2327 130.793 28.9387 130.401 28.724C130.018 28.5093 129.593 28.402 129.127 28.402C128.66 28.402 128.226 28.5093 127.825 28.724C127.433 28.9387 127.115 29.2373 126.873 29.62C126.639 29.9933 126.523 30.432 126.523 30.936C126.523 31.468 126.644 31.944 126.887 32.364C127.139 32.7747 127.414 33.1433 127.713 33.47C127.526 33.582 127.316 33.7267 127.083 33.904C126.849 34.0813 126.625 34.2913 126.411 34.534C126.196 34.7767 126.019 35.0613 125.879 35.388C125.739 35.7147 125.669 36.0833 125.669 36.494C125.669 37.0353 125.799 37.5067 126.061 37.908C126.322 38.3093 126.677 38.622 127.125 38.846C127.582 39.0607 128.105 39.168 128.693 39.168ZM127.853 30.88C127.853 30.5067 127.974 30.1987 128.217 29.956C128.459 29.7133 128.763 29.592 129.127 29.592C129.491 29.592 129.794 29.7133 130.037 29.956C130.279 30.1987 130.401 30.502 130.401 30.866C130.401 31.1553 130.326 31.4167 130.177 31.65C130.027 31.8833 129.836 32.0933 129.603 32.28C129.369 32.4667 129.127 32.6347 128.875 32.784C128.623 32.5133 128.389 32.2193 128.175 31.902C127.96 31.5753 127.853 31.2347 127.853 30.88ZM127.097 36.466C127.097 36.1207 127.171 35.822 127.321 35.57C127.47 35.3087 127.657 35.08 127.881 34.884C128.114 34.688 128.343 34.5153 128.567 34.366L130.807 36.732C130.573 37.0493 130.293 37.334 129.967 37.586C129.649 37.8287 129.239 37.95 128.735 37.95C128.249 37.95 127.853 37.8193 127.545 37.558C127.246 37.2967 127.097 36.9327 127.097 36.466ZM138.083 39H139.455V35.01H141.765C142.456 35.01 143.063 34.8793 143.585 34.618C144.108 34.3567 144.514 33.9833 144.803 33.498C145.102 33.0127 145.251 32.4433 145.251 31.79C145.251 31.1273 145.102 30.558 144.803 30.082C144.514 29.5967 144.108 29.2233 143.585 28.962C143.063 28.7007 142.456 28.57 141.765 28.57H138.083V39ZM139.455 33.75V29.83H141.807C142.433 29.83 142.932 30.0073 143.305 30.362C143.679 30.7073 143.865 31.1833 143.865 31.79C143.865 32.3873 143.679 32.8633 143.305 33.218C142.932 33.5727 142.433 33.75 141.807 33.75H139.455ZM146.533 39H147.835V34.506C147.835 33.8993 147.998 33.4327 148.325 33.106C148.651 32.77 149.081 32.602 149.613 32.602H150.271V31.37H149.809C149.342 31.37 148.941 31.454 148.605 31.622C148.269 31.7807 148.003 32.0233 147.807 32.35V31.454H146.533V39ZM154.591 39.168C155.3 39.168 155.949 39 156.537 38.664C157.125 38.328 157.592 37.8613 157.937 37.264C158.292 36.6667 158.469 35.9853 158.469 35.22C158.469 34.464 158.296 33.792 157.951 33.204C157.615 32.6067 157.153 32.14 156.565 31.804C155.977 31.4587 155.319 31.286 154.591 31.286C153.854 31.286 153.191 31.4587 152.603 31.804C152.015 32.14 151.548 32.6067 151.203 33.204C150.867 33.792 150.699 34.464 150.699 35.22C150.699 35.976 150.872 36.6527 151.217 37.25C151.562 37.8473 152.029 38.3187 152.617 38.664C153.205 39 153.863 39.168 154.591 39.168ZM154.591 37.908C154.115 37.908 153.686 37.7913 153.303 37.558C152.93 37.3247 152.631 37.0073 152.407 36.606C152.183 36.1953 152.071 35.7333 152.071 35.22C152.071 34.7067 152.183 34.2493 152.407 33.848C152.631 33.4467 152.93 33.1293 153.303 32.896C153.686 32.6627 154.115 32.546 154.591 32.546C155.058 32.546 155.478 32.6627 155.851 32.896C156.234 33.1293 156.532 33.4467 156.747 33.848C156.971 34.2493 157.083 34.7067 157.083 35.22C157.083 35.7333 156.971 36.1953 156.747 36.606C156.532 37.0073 156.234 37.3247 155.851 37.558C155.478 37.7913 155.058 37.908 154.591 37.908ZM163.177 39.168C163.737 39.168 164.246 39.0607 164.703 38.846C165.17 38.622 165.543 38.3047 165.823 37.894V39H167.097V28.402H165.781V32.462C165.492 32.0887 165.123 31.7993 164.675 31.594C164.227 31.3887 163.728 31.286 163.177 31.286C162.468 31.286 161.829 31.4587 161.259 31.804C160.699 32.1493 160.256 32.6207 159.929 33.218C159.603 33.806 159.439 34.478 159.439 35.234C159.439 35.9807 159.603 36.6527 159.929 37.25C160.256 37.838 160.699 38.3047 161.259 38.65C161.829 38.9953 162.468 39.168 163.177 39.168ZM163.289 37.908C162.813 37.908 162.389 37.7913 162.015 37.558C161.642 37.3247 161.348 37.0073 161.133 36.606C160.919 36.1953 160.811 35.738 160.811 35.234C160.811 34.7207 160.919 34.2633 161.133 33.862C161.348 33.4513 161.642 33.1293 162.015 32.896C162.398 32.6627 162.823 32.546 163.289 32.546C163.765 32.546 164.19 32.6673 164.563 32.91C164.937 33.1433 165.231 33.4607 165.445 33.862C165.669 34.2633 165.781 34.7207 165.781 35.234C165.781 35.738 165.669 36.1953 165.445 36.606C165.231 37.0073 164.937 37.3247 164.563 37.558C164.19 37.7913 163.765 37.908 163.289 37.908ZM171.367 39.168C171.833 39.168 172.253 39.0747 172.627 38.888C173 38.692 173.299 38.4213 173.523 38.076V39H174.797V31.454H173.481V35.92C173.481 36.536 173.308 37.0213 172.963 37.376C172.627 37.7307 172.193 37.908 171.661 37.908C171.119 37.908 170.681 37.74 170.345 37.404C170.009 37.0587 169.841 36.6013 169.841 36.032V31.454H168.539V36.172C168.539 36.76 168.66 37.2827 168.903 37.74C169.145 38.188 169.477 38.538 169.897 38.79C170.326 39.042 170.816 39.168 171.367 39.168ZM179.894 39.168C180.388 39.168 180.85 39.0793 181.28 38.902C181.718 38.7247 182.096 38.482 182.414 38.174C182.731 37.866 182.969 37.5207 183.128 37.138L181.966 36.55C181.788 36.9607 181.518 37.292 181.154 37.544C180.799 37.7867 180.379 37.908 179.894 37.908C179.436 37.908 179.021 37.7913 178.648 37.558C178.284 37.3247 177.994 37.0073 177.78 36.606C177.565 36.1953 177.458 35.738 177.458 35.234C177.458 34.7113 177.565 34.2493 177.78 33.848C177.994 33.4467 178.284 33.1293 178.648 32.896C179.021 32.6627 179.436 32.546 179.894 32.546C180.37 32.546 180.79 32.672 181.154 32.924C181.518 33.1667 181.788 33.484 181.966 33.876L183.128 33.316C182.969 32.924 182.726 32.574 182.4 32.266C182.082 31.958 181.709 31.72 181.28 31.552C180.85 31.3747 180.388 31.286 179.894 31.286C179.156 31.286 178.498 31.4587 177.92 31.804C177.35 32.14 176.902 32.6067 176.576 33.204C176.249 33.792 176.086 34.464 176.086 35.22C176.086 35.9667 176.249 36.6387 176.576 37.236C176.902 37.8333 177.35 38.3047 177.92 38.65C178.498 38.9953 179.156 39.168 179.894 39.168ZM187.475 39.084C187.578 39.084 187.704 39.0747 187.853 39.056C188.003 39.0467 188.138 39.028 188.259 39V37.852C188.175 37.8613 188.087 37.8707 187.993 37.88C187.9 37.8893 187.816 37.894 187.741 37.894C187.284 37.894 186.957 37.782 186.761 37.558C186.575 37.3247 186.481 37.0167 186.481 36.634V32.7H188.175V31.454H186.481V29.718H185.179V30.334C185.179 30.6793 185.081 30.9547 184.885 31.16C184.689 31.356 184.423 31.454 184.087 31.454H183.807V32.7H185.179V36.676C185.179 37.4413 185.375 38.034 185.767 38.454C186.169 38.874 186.738 39.084 187.475 39.084ZM191.694 39H195.11C196.165 39 197.084 38.7807 197.868 38.342C198.652 37.9033 199.259 37.292 199.688 36.508C200.117 35.724 200.332 34.814 200.332 33.778C200.332 32.7327 200.117 31.8227 199.688 31.048C199.259 30.264 198.652 29.6573 197.868 29.228C197.084 28.7893 196.165 28.57 195.11 28.57H191.694V39ZM193.066 37.74V29.83H195.124C195.889 29.83 196.552 29.9933 197.112 30.32C197.681 30.6373 198.12 31.09 198.428 31.678C198.745 32.266 198.904 32.966 198.904 33.778C198.904 34.5807 198.75 35.2807 198.442 35.878C198.134 36.4753 197.695 36.9373 197.126 37.264C196.566 37.5813 195.899 37.74 195.124 37.74H193.066ZM204.969 39.168C205.743 39.168 206.415 38.986 206.985 38.622C207.554 38.258 207.955 37.8147 208.189 37.292L207.097 36.732C206.882 37.096 206.602 37.3947 206.257 37.628C205.911 37.8613 205.487 37.978 204.983 37.978C204.563 37.978 204.171 37.8847 203.807 37.698C203.452 37.502 203.158 37.2267 202.925 36.872C202.701 36.5173 202.579 36.0973 202.561 35.612H208.329C208.375 35.36 208.399 35.1267 208.399 34.912C208.399 34.2867 208.259 33.6987 207.979 33.148C207.699 32.5973 207.293 32.1493 206.761 31.804C206.238 31.4587 205.603 31.286 204.857 31.286C204.157 31.286 203.531 31.454 202.981 31.79C202.43 32.126 201.991 32.5927 201.665 33.19C201.347 33.778 201.189 34.45 201.189 35.206C201.189 35.962 201.352 36.6387 201.679 37.236C202.005 37.8333 202.453 38.3047 203.023 38.65C203.592 38.9953 204.241 39.168 204.969 39.168ZM204.857 32.448C205.239 32.448 205.589 32.5367 205.907 32.714C206.224 32.882 206.481 33.12 206.677 33.428C206.873 33.736 206.975 34.0907 206.985 34.492H202.589C202.682 33.8573 202.943 33.358 203.373 32.994C203.802 32.63 204.297 32.448 204.857 32.448ZM212.378 39.168C212.92 39.168 213.396 39.0747 213.806 38.888C214.217 38.7013 214.539 38.4447 214.772 38.118C215.006 37.782 215.122 37.3993 215.122 36.97C215.122 36.4473 214.95 35.9993 214.604 35.626C214.259 35.2527 213.783 34.9773 213.176 34.8L211.944 34.436C211.795 34.3893 211.641 34.3333 211.482 34.268C211.324 34.1933 211.188 34.0907 211.076 33.96C210.964 33.82 210.908 33.6427 210.908 33.428C210.908 33.1293 211.02 32.8867 211.244 32.7C211.478 32.5133 211.781 32.42 212.154 32.42C212.565 32.42 212.938 32.5367 213.274 32.77C213.62 32.994 213.876 33.302 214.044 33.694L215.108 33.204C214.884 32.5973 214.506 32.126 213.974 31.79C213.452 31.454 212.859 31.286 212.196 31.286C211.702 31.286 211.254 31.3793 210.852 31.566C210.46 31.7527 210.148 32.014 209.914 32.35C209.69 32.6767 209.578 33.064 209.578 33.512C209.578 33.9973 209.732 34.4267 210.04 34.8C210.358 35.164 210.857 35.4393 211.538 35.626L212.672 35.948C212.831 35.9853 212.994 36.046 213.162 36.13C213.34 36.2047 213.489 36.312 213.61 36.452C213.741 36.5827 213.806 36.76 213.806 36.984C213.806 37.3013 213.671 37.558 213.4 37.754C213.13 37.95 212.789 38.048 212.378 38.048C211.921 38.048 211.506 37.922 211.132 37.67C210.759 37.4087 210.465 37.0493 210.25 36.592L209.214 37.096C209.448 37.7307 209.844 38.2347 210.404 38.608C210.964 38.9813 211.622 39.168 212.378 39.168ZM216.407 30.25H217.709V28.57H216.407V30.25ZM216.407 39H217.709V31.454H216.407V39ZM222.907 42.08C223.607 42.08 224.228 41.9307 224.769 41.632C225.32 41.3427 225.749 40.9413 226.057 40.428C226.365 39.9147 226.519 39.3313 226.519 38.678V31.454H225.245V32.504C224.946 32.1213 224.578 31.8227 224.139 31.608C223.7 31.3933 223.215 31.286 222.683 31.286C221.974 31.286 221.339 31.454 220.779 31.79C220.228 32.1167 219.794 32.5647 219.477 33.134C219.16 33.7033 219.001 34.3427 219.001 35.052C219.001 35.7613 219.16 36.4007 219.477 36.97C219.804 37.5393 220.242 37.992 220.793 38.328C221.353 38.6547 221.988 38.818 222.697 38.818C223.21 38.818 223.686 38.7153 224.125 38.51C224.564 38.3047 224.923 38.0107 225.203 37.628V38.678C225.203 39.1353 225.096 39.5227 224.881 39.84C224.676 40.1667 224.4 40.4093 224.055 40.568C223.71 40.736 223.322 40.82 222.893 40.82C222.333 40.82 221.866 40.694 221.493 40.442C221.129 40.1993 220.882 39.9007 220.751 39.546L219.533 40.106C219.785 40.694 220.21 41.17 220.807 41.534C221.404 41.898 222.104 42.08 222.907 42.08ZM222.809 37.558C222.342 37.558 221.922 37.446 221.549 37.222C221.185 36.998 220.896 36.6993 220.681 36.326C220.476 35.9433 220.373 35.5187 220.373 35.052C220.373 34.5853 220.48 34.1653 220.695 33.792C220.91 33.4093 221.199 33.106 221.563 32.882C221.936 32.658 222.352 32.546 222.809 32.546C223.257 32.546 223.663 32.658 224.027 32.882C224.391 33.106 224.676 33.4093 224.881 33.792C225.096 34.1653 225.203 34.5853 225.203 35.052C225.203 35.5093 225.096 35.9293 224.881 36.312C224.676 36.6947 224.391 36.998 224.027 37.222C223.663 37.446 223.257 37.558 222.809 37.558ZM228.118 39H229.42V34.534C229.42 33.918 229.592 33.4327 229.938 33.078C230.283 32.7233 230.722 32.546 231.254 32.546C231.786 32.546 232.22 32.7233 232.556 33.078C232.892 33.4233 233.06 33.9087 233.06 34.534V39H234.376V34.114C234.376 33.5727 234.25 33.092 233.998 32.672C233.755 32.2427 233.419 31.9067 232.99 31.664C232.57 31.412 232.089 31.286 231.548 31.286C231.081 31.286 230.661 31.384 230.288 31.58C229.914 31.7667 229.616 32.0327 229.392 32.378V31.454H228.118V39Z" fill="white"/>
<path d="M37.9273 20.9091C37.9273 30.8629 30.2363 39.0204 20.4728 39.7631C19.8259 39.8123 19.5025 39.8369 19.2739 39.6406C19.0453 39.4444 19.0179 39.0842 18.9631 38.3637C18.2569 29.0801 10.8472 21.6704 1.56367 20.9642C0.843181 20.9094 0.482935 20.882 0.286693 20.6534C0.0904505 20.4249 0.115054 20.1014 0.164262 19.4546C0.906977 9.691 9.06444 2 19.0182 2C29.4614 2 37.9273 10.4659 37.9273 20.9091Z" fill="white"/>
<path d="M16.1091 39.8182C16.1091 31.4716 9.71803 24.6177 1.56259 23.8833C0.909106 23.8245 0.582361 23.795 0.345746 24.0113C0.109131 24.2276 0.109131 24.576 0.109131 25.2727V40.5455C0.109131 41.2311 0.109131 41.574 0.322144 41.787C0.535158 42 0.877997 42 1.56368 42H14.6546C15.3403 42 15.6831 42 15.8961 41.787C16.1091 41.574 16.1091 41.2311 16.1091 40.5455V39.8182Z" fill="white"/>
<path opacity="0.16" d="M62 6V38" stroke="white" stroke-width="1.5" stroke-linecap="round"/>
</svg>
